<svg width="29" height="29" viewBox="0 0 29 29" fill="none" xmlns="http://www.w3.org/2000/svg">
<circle cx="14.5" cy="14.5" r="14" stroke="#999999"/>
<path d="M13.0627 18.9978C12.9641 18.9978 12.8717 18.9822 12.7854 18.9512C12.6991 18.9206 12.619 18.8683 12.545 18.7944L9.3648 15.6142C9.22921 15.4786 9.16438 15.3028 9.17029 15.0868C9.1767 14.8714 9.2477 14.6958 9.38329 14.5603C9.51888 14.4247 9.69145 14.3569 9.901 14.3569C10.1105 14.3569 10.2831 14.4247 10.4187 14.5603L13.0627 17.2043L19.3307 10.9363C19.4663 10.8007 19.6421 10.7329 19.858 10.7329C20.0735 10.7329 20.249 10.8007 20.3846 10.9363C20.5202 11.0719 20.588 11.2474 20.588 11.4629C20.588 11.6788 20.5202 11.8546 20.3846 11.9902L13.5804 18.7944C13.5065 18.8683 13.4263 18.9206 13.3401 18.9512C13.2538 18.9822 13.1613 18.9978 13.0627 18.9978Z" fill="#999999"/>
</svg>
