<svg width="28" height="33" viewBox="0 0 28 33" fill="none" xmlns="http://www.w3.org/2000/svg">
<path d="M13.5 30.25C12.7438 30.25 12.0964 29.9807 11.5578 29.4422C11.0193 28.9036 10.75 28.2563 10.75 27.5H16.25C16.25 28.2563 15.9807 28.9036 15.4422 29.4422C14.9036 29.9807 14.2563 30.25 13.5 30.25ZM3.875 26.125C3.48542 26.125 3.15885 25.9932 2.89531 25.7297C2.63177 25.4661 2.5 25.1396 2.5 24.75C2.5 24.3604 2.63177 24.0339 2.89531 23.7703C3.15885 23.5068 3.48542 23.375 3.875 23.375H5.25V13.75C5.25 11.8479 5.82292 10.1578 6.96875 8.67969C8.11458 7.20156 9.60417 6.23333 11.4375 5.775V4.8125C11.4375 4.23958 11.638 3.7526 12.0391 3.35156C12.4401 2.95052 12.9271 2.75 13.5 2.75C14.0729 2.75 14.5599 2.95052 14.9609 3.35156C15.362 3.7526 15.5625 4.23958 15.5625 4.8125V5.25938C15.3333 5.71771 15.1615 6.19896 15.0469 6.70313C14.9323 7.20729 14.875 7.72292 14.875 8.25C14.875 10.1521 15.5453 11.7734 16.8859 13.1141C18.2266 14.4547 19.8479 15.125 21.75 15.125V23.375H23.125C23.5146 23.375 23.8411 23.5068 24.1047 23.7703C24.3682 24.0339 24.5 24.3604 24.5 24.75C24.5 25.1396 24.3682 25.4661 24.1047 25.7297C23.8411 25.9932 23.5146 26.125 23.125 26.125H3.875ZM21.75 12.375C20.6042 12.375 19.6302 11.974 18.8281 11.1719C18.026 10.3698 17.625 9.39583 17.625 8.25C17.625 7.10417 18.026 6.13021 18.8281 5.32813C19.6302 4.52604 20.6042 4.125 21.75 4.125C22.8958 4.125 23.8698 4.52604 24.6719 5.32813C25.474 6.13021 25.875 7.10417 25.875 8.25C25.875 9.39583 25.474 10.3698 24.6719 11.1719C23.8698 11.974 22.8958 12.375 21.75 12.375Z" fill="#999999"/>
</svg>
