<svg width="23" height="23" viewBox="0 0 23 23" fill="none" xmlns="http://www.w3.org/2000/svg">
<g clip-path="url(#clip0_177_7169)">
<path d="M13.7546 22.9793H9.49679C9.21294 22.9793 8.96693 22.8847 8.75877 22.6955C8.55061 22.5062 8.42761 22.2697 8.38976 21.9858L8.04914 19.346C7.80313 19.2514 7.5715 19.1378 7.35426 19.0054C7.13626 18.8729 6.92318 18.731 6.71502 18.5796L4.24549 19.6015C3.98056 19.6961 3.71563 19.7055 3.4507 19.6299C3.18577 19.5542 2.97761 19.3933 2.82622 19.1473L0.725698 15.4856C0.574309 15.2396 0.527 14.9746 0.583771 14.6908C0.640542 14.4069 0.782469 14.1799 1.00955 14.0095L3.13846 12.3916C3.11954 12.2591 3.11007 12.1312 3.11007 12.0078V11.2414C3.11007 11.1188 3.11954 10.9912 3.13846 10.8588L1.00955 9.24079C0.782469 9.07048 0.640542 8.84339 0.583771 8.55954C0.527 8.27568 0.574309 8.01075 0.725698 7.76475L2.82622 4.10303C2.95868 3.8381 3.16192 3.67233 3.43594 3.60571C3.71071 3.53986 3.98056 3.55424 4.24549 3.64886L6.71502 4.67074C6.92318 4.51935 7.1408 4.37742 7.36789 4.24495C7.59497 4.11249 7.82205 3.99895 8.04914 3.90433L8.38976 1.26449C8.42761 0.980632 8.55061 0.744086 8.75877 0.55485C8.96693 0.365614 9.21294 0.270996 9.49679 0.270996H13.7546C14.0385 0.270996 14.2845 0.365614 14.4926 0.55485C14.7008 0.744086 14.8238 0.980632 14.8616 1.26449L15.2023 3.90433C15.4483 3.99895 15.6803 4.11249 15.8983 4.24495C16.1155 4.37742 16.3282 4.51935 16.5364 4.67074L19.0059 3.64886C19.2708 3.55424 19.5358 3.54478 19.8007 3.62048C20.0656 3.69617 20.2738 3.85702 20.4252 4.10303L22.5257 7.76475C22.6771 8.01075 22.7244 8.27568 22.6676 8.55954C22.6109 8.84339 22.4689 9.07048 22.2418 9.24079L20.1129 10.8588C20.1319 10.9912 20.1413 11.1188 20.1413 11.2414V12.0078C20.1413 12.1312 20.1224 12.2591 20.0846 12.3916L22.2135 14.0095C22.4405 14.1799 22.5825 14.4069 22.6392 14.6908C22.696 14.9746 22.6487 15.2396 22.4973 15.4856L20.3968 19.1189C20.2454 19.3649 20.0327 19.5307 19.7587 19.6162C19.4839 19.701 19.2141 19.6961 18.9491 19.6015L16.5364 18.5796C16.3282 18.731 16.1106 18.8729 15.8835 19.0054C15.6564 19.1378 15.4293 19.2514 15.2023 19.346L14.8616 21.9858C14.8238 22.2697 14.7008 22.5062 14.4926 22.6955C14.2845 22.8847 14.0385 22.9793 13.7546 22.9793ZM11.6825 15.5991C12.78 15.5991 13.7168 15.2112 14.4926 14.4353C15.2685 13.6595 15.6564 12.7227 15.6564 11.6252C15.6564 10.5276 15.2685 9.59087 14.4926 8.81501C13.7168 8.03914 12.78 7.6512 11.6825 7.6512C10.566 7.6512 9.62434 8.03914 8.85755 8.81501C8.09152 9.59087 7.70851 10.5276 7.70851 11.6252C7.70851 12.7227 8.09152 13.6595 8.85755 14.4353C9.62434 15.2112 10.566 15.5991 11.6825 15.5991Z" fill="#999999"/>
</g>
<defs>
<clipPath id="clip0_177_7169">
<rect width="23" height="23" fill="white"/>
</clipPath>
</defs>
</svg>
